<svg width="145" height="33" viewBox="0 0 145 33" fill="none" xmlns="http://www.w3.org/2000/svg">
<path fill-rule="evenodd" clip-rule="evenodd" d="M0.137634 16.5C0.137634 7.69729 7.33682 0.561157 16.2176 0.561157C25.0983 0.561157 32.2973 7.69729 32.2973 16.5C32.2973 25.3027 25.0982 32.4389 16.2176 32.4389C7.33682 32.4389 0.137634 25.3029 0.137634 16.5ZM21.3499 18.1095C23.7137 18.2432 25.7383 16.4524 25.8732 14.1093C26.008 11.7662 24.2016 9.75953 21.8378 9.62567C19.474 9.49196 17.4495 11.2826 17.3144 13.6257C17.1796 15.9689 18.986 17.9756 21.3499 18.1095ZM7.44696 14.7648C8.17999 14.7648 8.79536 14.221 8.87959 13.498C8.96989 12.7138 8.40156 12.0031 7.61035 11.9124C7.55458 11.906 7.49886 11.9027 7.44319 11.9025C6.71016 11.9025 6.09465 12.4475 6.01042 13.1691C5.92011 13.9535 6.48844 14.6641 7.27965 14.755C7.33542 14.7613 7.39119 14.7646 7.44696 14.7648ZM8.94631 15.9897C8.8573 16.7568 9.41449 17.4527 10.1883 17.5411C10.2429 17.5472 10.2973 17.551 10.3519 17.551C11.0688 17.551 11.6718 17.0183 11.7535 16.3113C11.8427 15.5441 11.2855 14.8483 10.5115 14.7599C10.4572 14.7535 10.4026 14.7502 10.348 14.75C9.63114 14.75 9.02793 15.2827 8.94631 15.9897ZM12.4272 21.0564C11.6534 20.9679 11.0962 20.2721 11.1853 19.5049C11.267 18.7979 11.87 18.2652 12.587 18.2652C12.6414 18.2652 12.696 18.269 12.7505 18.2751C13.5244 18.3633 14.0816 19.0595 13.9923 19.8264C13.9108 20.5335 13.3077 21.0662 12.5908 21.0662C12.5362 21.066 12.4817 21.0627 12.4272 21.0564ZM14.7736 24.617C15.5217 24.617 16.1407 24.0364 16.1828 23.2963C16.2262 22.5256 15.6294 21.8628 14.8517 21.8185C14.8244 21.8162 14.7974 21.8162 14.7702 21.8162C14.0222 21.8162 13.403 22.3967 13.3608 23.1368C13.3174 23.9076 13.9144 24.5704 14.692 24.6145C14.7192 24.617 14.7464 24.617 14.7736 24.617ZM18.917 19.9995C18.8749 20.7396 18.2557 21.3202 17.5078 21.3202C17.4806 21.3202 17.4532 21.3202 17.426 21.3179C16.6484 21.2736 16.0517 20.6108 16.0961 19.8399C16.1384 19.0998 16.7574 18.5194 17.5053 18.5194C17.5327 18.5194 17.5597 18.5194 17.587 18.5217C18.3646 18.566 18.9614 19.2288 18.917 19.9995ZM54.2029 16.4671C53.8313 15.4801 53.2668 14.5765 52.542 13.8087C51.8728 13.0825 51.0673 12.504 50.15 12.1101C49.2329 11.7286 48.2538 11.5317 47.2625 11.544C45.5149 11.4825 43.817 12.0856 42.5156 13.2179V5.43917H37.6574V27.1505H42.5156V25.8827C43.8294 27.015 45.5272 27.6183 47.2625 27.5567C48.2538 27.5813 49.2329 27.3843 50.1377 27.0029C51.0548 26.609 51.8728 26.0428 52.542 25.329C53.9922 23.8273 54.711 21.9074 54.711 19.5565C54.7473 18.5034 54.5746 17.4536 54.2029 16.4671ZM49.9394 19.5688C49.9889 20.6026 49.6171 21.6242 48.9107 22.3995C48.5729 22.7616 48.1579 23.0434 47.6962 23.2243C47.2399 23.4082 46.7505 23.4962 46.2585 23.4828C45.7751 23.4828 45.2917 23.3843 44.8333 23.1997C44.3746 23.0028 43.9658 22.7319 43.6312 22.375C43.2717 22.0058 42.9741 21.5626 42.7883 21.0826C42.604 20.5953 42.5156 20.0772 42.5279 19.5565C42.5032 19.0395 42.6023 18.5226 42.7883 18.0425C42.9753 17.5577 43.2625 17.1174 43.6312 16.7503C43.9781 16.3933 44.3746 16.1225 44.8333 15.9256C45.2917 15.741 45.7751 15.6426 46.2708 15.6426C46.7543 15.6302 47.25 15.7286 47.7087 15.9132C48.1671 16.0979 48.5761 16.3933 48.9107 16.7503C49.6047 17.5133 49.9765 18.535 49.9394 19.5688ZM72.7686 16.3073C72.345 15.3208 71.7155 14.4354 70.9219 13.7102C69.3108 12.2332 67.1915 11.4333 65.0225 11.4701C62.8166 11.4087 60.6601 12.2086 59.0241 13.6979C58.223 14.4192 57.5887 15.3053 57.165 16.2949C56.7312 17.2795 56.533 18.3504 56.5701 19.4212C56.5325 20.5012 56.7313 21.5764 57.1527 22.5721C57.5731 23.567 58.2077 24.4577 59.0117 25.1813C60.6352 26.6706 62.7917 27.4705 65.0102 27.4091C67.2039 27.4581 69.3233 26.6582 70.9219 25.1813C71.7184 24.4539 72.3483 23.5639 72.7686 22.5721C73.19 21.5875 73.3883 20.5042 73.3511 19.4333C73.3889 18.3614 73.19 17.2943 72.7686 16.3073ZM68.4185 20.9597C68.2201 21.4397 67.9351 21.8827 67.5756 22.2518C67.241 22.609 66.8444 22.892 66.4107 23.1011C65.9629 23.2868 65.4828 23.383 64.9978 23.3843C64.5021 23.3843 64.0062 23.2858 63.5478 23.1011C63.0893 22.9165 62.6803 22.6335 62.3332 22.2766C61.9737 21.9074 61.6762 21.4643 61.4904 20.9842C61.3061 20.4969 61.2177 19.9788 61.2301 19.4581C61.2052 18.9412 61.2921 18.4118 61.4904 17.9318C61.691 17.4481 61.9859 17.009 62.358 16.6396C62.6935 16.2805 63.1039 15.999 63.5602 15.8148C64.0187 15.618 64.5021 15.5318 64.9978 15.5318C65.4811 15.5318 65.9522 15.6302 66.3983 15.8148C66.8321 15.9995 67.2287 16.2825 67.5633 16.6272C67.9351 16.9965 68.2325 17.4396 68.4185 17.9196C68.6043 18.4118 68.7034 18.9288 68.6787 19.4457C68.6911 19.9627 68.6043 20.4797 68.4185 20.9597ZM91.0243 27.0398H86.1661V25.5997C85.5588 26.2151 84.8401 26.7075 84.0344 27.0274C83.2287 27.3474 82.3613 27.4951 81.4938 27.4705C80.6882 27.5075 79.8949 27.3598 79.1513 27.0644C78.4089 26.7693 77.7404 26.3155 77.1931 25.735C76.1148 24.5782 75.5696 23.0521 75.5696 21.1689V11.864H80.4031V20.1227C80.3653 20.9069 80.6265 21.6764 81.1343 22.2766C81.3668 22.5437 81.6543 22.7578 81.9771 22.9044C82.3032 23.0535 82.6596 23.1251 83.0182 23.1135C83.4642 23.1381 83.8981 23.0521 84.3071 22.8675C84.7161 22.6828 85.0631 22.4119 85.3482 22.0672C85.9058 21.378 86.191 20.3073 86.191 18.8796V11.8763H91.0492L91.0243 27.0398ZM109.07 17.7719C109.07 15.8763 108.537 14.3626 107.446 13.2056C106.901 12.6272 106.231 12.1717 105.463 11.8887C104.719 11.5925 103.921 11.4582 103.121 11.4949C102.253 11.4701 101.385 11.6178 100.58 11.9501C99.7744 12.2825 99.0555 12.7748 98.4483 13.4025V11.9501H93.5899V27.0889H98.4483V20.049C98.4483 18.6334 98.7334 17.5625 99.291 16.8733C99.5761 16.5289 99.923 16.258 100.332 16.0733C100.741 15.8887 101.175 15.8024 101.621 15.8273C101.98 15.8157 102.336 15.8873 102.662 16.0364C102.985 16.183 103.272 16.3971 103.505 16.6642C104.012 17.2644 104.274 18.0338 104.236 18.818V27.0768H109.07V17.7719ZM122.703 20.6395L127.164 21.612C126.817 23.3227 125.838 24.8489 124.425 25.8951C122.975 26.9905 121.178 27.5689 119.356 27.5197C117.163 27.5689 115.043 26.7689 113.445 25.2796C112.651 24.5413 112.019 23.6428 111.61 22.6458C111.189 21.6501 110.99 20.5749 111.028 19.4949C110.991 18.419 111.19 17.3481 111.61 16.3563C112.029 15.3631 112.654 14.4696 113.445 13.7349C115.031 12.2333 117.163 11.4209 119.356 11.4701C121.153 11.4456 122.901 11.9995 124.339 13.0702C125.751 14.104 126.743 15.5933 127.14 17.2918L122.579 18.3749C122.442 17.5994 122.033 16.8857 121.426 16.3687C120.831 15.9132 120.1 15.6671 119.356 15.6917C118.861 15.6671 118.377 15.7533 117.919 15.9379C117.46 16.1225 117.051 16.4057 116.716 16.7503C116.035 17.5011 115.675 18.4734 115.712 19.4827C115.676 20.493 116.036 21.4777 116.716 22.2273C117.051 22.5842 117.472 22.8551 117.931 23.0397C118.39 23.2243 118.873 23.3104 119.369 23.2858C121.091 23.3104 122.194 22.4242 122.703 20.6395ZM133.671 20.738H144.862L144.85 19.5072C144.813 17.0949 144.044 15.1626 142.545 13.6855C141.812 12.9696 140.944 12.4049 139.992 12.0239C139.035 11.642 138.01 11.4578 136.98 11.4824C135.914 11.4578 134.861 11.6425 133.87 12.0363C132.878 12.4178 131.985 13.0086 131.229 13.747C130.449 14.4979 129.841 15.384 129.445 16.381C129.048 17.378 128.85 18.4365 128.887 19.5072C128.85 20.578 129.048 21.6365 129.445 22.6335C129.852 23.6276 130.46 24.5281 131.229 25.2796C131.985 26.0182 132.878 26.5966 133.856 26.9781C134.836 27.372 135.89 27.5567 136.943 27.532C138.579 27.5689 140.19 27.1627 141.591 26.3382C142.929 25.5012 143.97 24.2581 144.54 22.7935L140.214 21.9196C139.571 23.0766 138.493 23.6673 136.968 23.6673C136.187 23.6796 135.43 23.3965 134.861 22.8796C134.241 22.3134 133.832 21.5626 133.671 20.738ZM133.746 17.7841C133.943 17.0702 134.389 16.4549 135.009 16.0364C135.58 15.6285 136.265 15.409 136.968 15.4087C137.662 15.3964 138.331 15.6056 138.888 16.0117C139.461 16.4574 139.867 17.0814 140.041 17.7841H133.746Z" fill="#191919"/>
</svg>
