<svg width="89" height="75" viewBox="0 0 89 75" fill="none" xmlns="http://www.w3.org/2000/svg">
<g clip-path="url(#clip0_3702_1583)">
<path d="M50.7269 12.1919C51.4361 12.4663 52.1307 12.6946 52.79 12.9987C58.3859 15.5731 61.973 19.8575 63.1859 25.9615C64.782 33.992 61.0318 42.8202 52.6549 46.6122C43.5584 50.729 32.7249 46.5247 28.6708 37.3272C27.6238 34.9515 27.0688 32.4689 27.0658 29.8663C27.0613 26.3074 28.1102 23.0413 29.8557 19.9821C27.159 18.7817 25.1302 16.843 24.8501 13.6986C24.5153 9.93331 27.0732 6.65144 30.7617 6.03007C31.9246 5.83431 33.0714 5.93664 34.1874 6.32963C35.3503 6.73894 36.5103 7.15418 37.6967 7.57535C38.1743 6.52128 38.5662 5.42842 39.03 4.36763C39.9697 2.21877 41.6539 1.02347 43.9005 0.609717C46.8784 0.0624916 50.0324 1.56032 51.4905 4.21933C52.5036 6.06566 52.6328 7.97427 51.743 9.91848C51.3994 10.6689 51.069 11.4237 50.7254 12.1889L50.7269 12.1919ZM30.236 29.761C30.3109 33.9222 31.7117 37.5378 34.6235 40.4712C37.9698 43.8405 42.0563 45.3443 46.7653 44.8697C51.4141 44.4011 55.0791 42.1469 57.7354 38.2689C59.3109 35.9688 60.1112 33.3854 60.3153 30.6018C60.4812 28.3403 60.1949 26.1425 59.3359 24.0455C57.6223 19.8664 54.6327 17.0235 50.4127 15.5153C44.6846 13.4673 38.9522 11.4326 33.2182 9.4024C32.8644 9.27634 32.4811 9.19033 32.1067 9.16957C30.1626 9.06131 28.449 10.399 28.0761 12.2853C27.6914 14.231 28.7368 16.0877 30.5752 16.8011C31.8248 17.286 33.0567 17.8169 34.2945 18.336C34.6793 18.4976 34.7571 18.901 34.484 19.2154C31.8702 22.2613 30.3187 25.6798 30.2345 29.7624L30.236 29.761ZM47.7447 11.1538C48.15 10.2492 48.5347 9.37126 48.9355 8.50222C49.8206 6.58409 48.2921 4.52492 46.4892 3.92273C44.5702 3.27989 42.6528 3.98304 41.8331 5.84766C41.4293 6.7597 41.0651 7.69102 40.676 8.63717C43.0371 9.47803 45.3792 10.3115 47.7462 11.1538H47.7447Z" fill="#191919"/>
<path d="M81.7415 58.7684C80.9706 58.2063 80.21 57.6591 79.4568 57.103C77.9646 56.003 71.1453 50.9145 70.3715 50.3273C71.1038 48.9035 72.8931 46.1048 73.6758 45.1559C74.4688 44.195 75.3982 43.3986 76.592 42.9759C79.2512 42.0372 81.7166 43.8984 82.2672 45.5934C82.5241 46.3836 82.6504 46.9311 82.7569 48.0345C82.7569 48.0345 85.3521 48.1917 86.7927 48.2317C87.3271 48.2465 87.7456 48.4512 87.9879 48.9376C88.2302 49.421 88.1685 49.8911 87.8513 50.3286C87.4402 50.8951 86.9074 51.6318 86.5036 52.2043C86.5036 52.2043 83.2088 51.8796 81.8795 51.7137C81.3686 51.65 81.022 51.7493 80.721 52.1972C80.2365 52.9194 80.2746 52.8126 80.9016 53.2813C81.4405 53.6846 81.9823 54.0821 82.5212 54.484C83.4008 55.1395 83.5696 56.2443 82.925 57.1371C82.5359 57.6754 82.1424 58.2122 81.7386 58.7669L81.7415 58.7684ZM77.9106 51.0657C78.2248 50.6252 78.539 50.2248 78.8048 49.7933C78.9722 49.5219 79.1029 49.2134 79.1895 48.9035C79.4142 48.0923 79.1425 47.4175 78.4333 46.9311C77.7402 46.4536 77.0296 46.4506 76.3835 46.943C75.7286 47.4427 75.2998 48.1204 74.9137 48.853C75.9136 49.5916 76.9004 50.3197 77.9091 51.0657H77.9106Z" fill="#191919"/>
<path d="M11.9374 64.1131L19.3195 52.107C19.7791 52.3131 20.4157 52.608 20.8503 52.8586C22.0999 53.5764 23.3568 54.2867 24.5623 55.0757C25.4991 55.6882 26.2656 56.5038 26.7942 57.5197C28.1715 60.1624 26.5299 62.8926 24.8648 63.6459C24.1103 63.9875 23.2381 64.1467 22.4367 64.3416C22.4734 65.5354 22.5301 67.1977 22.5771 68.39C22.5918 68.7385 22.5213 69.0529 22.2966 69.3243C21.906 69.7944 21.2541 69.9368 20.7255 69.6268C20.0742 69.2453 18.7006 68.3401 18.7006 68.3401C18.727 66.9787 18.7579 65.4062 18.7946 64.0448C18.8005 63.8357 18.8078 63.6266 18.821 63.419C18.8401 63.1417 18.7315 62.9326 18.5024 62.7858C18.3071 62.6597 18.1103 62.5366 17.9121 62.4165C17.6772 62.2741 17.5935 62.2934 17.4467 62.5277C17.0326 63.1921 16.6229 63.8595 16.2103 64.5253C15.5877 65.5293 14.5599 65.7681 13.5584 65.1393C13.0254 64.8041 12.4954 64.4675 11.9359 64.1131H11.9374ZM19.1661 59.7442C19.6462 60.0348 20.0912 60.327 20.5566 60.5776C21.4367 61.0524 22.5407 60.9998 23.1321 60.0986C23.5903 59.4016 23.6284 58.7298 23.2129 58.1336C22.6887 57.3803 21.9105 56.9799 21.0985 56.6076C20.4524 57.6576 19.8195 58.6838 19.1661 59.7442Z" fill="#191919"/>
<path d="M34.6705 64.9288C35.2813 65.0489 35.8716 65.1646 36.4619 65.2802C37.4192 65.4671 38.3781 65.651 39.3354 65.8408C39.7642 65.9253 40.0285 66.2457 40.0505 66.6832C40.077 67.1918 39.9947 67.6812 39.8053 68.1528C39.5542 68.7771 39.1269 69.0367 38.4721 68.9165C37.1946 68.6808 35.9215 68.4272 34.647 68.1825C34.2726 68.1113 34.0391 68.2625 33.9613 68.6437C33.8497 69.1835 33.7528 69.7248 33.6412 70.3106C35.7204 70.7169 37.7937 71.1218 39.8905 71.5311C39.8773 71.6097 39.8685 71.6809 39.8552 71.7491C39.7745 72.1836 39.6981 72.6196 39.6086 73.0526C39.4074 74.0092 38.5352 74.6409 37.5793 74.4704C35.9597 74.1797 34.346 73.852 32.7308 73.5376C31.6677 73.3299 30.6046 73.1194 29.5415 72.9088C29.4622 72.8925 29.3844 72.8717 29.2802 72.8465C29.3947 72.2429 29.5048 71.6542 29.6164 71.0669C30.261 67.6797 30.9042 64.294 31.5517 60.9084C31.794 59.6389 32.6809 58.9909 33.926 59.2267C36.5749 59.7264 39.2194 60.2559 41.8654 60.7734C41.8816 60.7764 41.8948 60.7853 41.9491 60.8075C41.9139 60.9988 41.8801 61.199 41.8375 61.3992C41.7582 61.7655 41.7054 62.1422 41.5864 62.4952C41.2428 63.5199 40.4308 63.9693 39.3912 63.7602C38.2401 63.5273 37.0874 63.3049 35.9333 63.0839C35.318 62.9653 34.9921 63.1996 34.879 63.8254C34.8129 64.1843 34.7439 64.5432 34.6705 64.9273V64.9288Z" fill="#191919"/>
<path d="M68.0624 52.0267C68.4853 52.7697 69.0755 53.4251 69.0065 54.3713C68.9581 55.0297 68.7217 55.5562 68.1387 55.9077C67.1241 56.5201 66.1183 57.1504 65.111 57.7748C64.5853 58.0995 64.4987 58.4792 64.8217 59.016C65.0229 59.3497 65.2255 59.6834 65.4355 60.0289C65.5295 59.9726 65.6073 59.9281 65.6836 59.8806C66.9259 59.1139 68.1666 58.3457 69.4074 57.579C69.8831 57.2854 70.3148 57.3195 70.6672 57.7584C70.9389 58.0981 71.1797 58.4792 71.353 58.8781C71.6393 59.5366 71.4572 60.0334 70.8493 60.4189C70.1974 60.8312 69.5381 61.2316 68.8817 61.6365C68.4515 61.9019 68.0198 62.1659 67.591 62.4343C67.2533 62.6464 67.1872 62.9178 67.3943 63.2633C67.6791 63.7423 67.9699 64.2169 68.2679 64.7078C70.0828 63.5866 71.8801 62.4759 73.7317 61.334C74.0547 61.9271 74.438 62.4818 74.67 63.0943C74.9695 63.8862 74.5848 64.7211 73.8257 65.1912C71.9432 66.3569 70.0608 67.521 68.1769 68.6852C67.7056 68.9758 67.2313 69.2635 66.7423 69.5631C66.3048 68.8424 65.8789 68.1379 65.4516 67.435C63.8012 64.7152 62.1523 61.9939 60.4974 59.2756C60.1509 58.7046 59.9556 58.1129 60.1641 57.4426C60.3153 56.9561 60.6354 56.5987 61.0539 56.3392C63.3504 54.9155 65.6528 53.4963 67.9523 52.0771C67.9787 52.0608 68.0095 52.0504 68.0594 52.0267H68.0624Z" fill="#191919"/>
<path d="M52.7533 69.7841C52.7533 69.7841 53.1132 63.7282 53.2995 60.7927C53.3994 59.8673 54.0675 59.105 54.9617 58.8826C55.2671 58.8069 55.574 58.7417 55.8824 58.6809C56.9131 58.4822 57.7677 59.2845 57.6444 60.3389C57.2215 63.9559 56.7986 67.5729 56.3713 71.1899C56.2054 72.5973 55.5505 73.3314 54.1864 73.6458C53.646 73.7704 53.1057 73.8934 52.5595 73.9824C52.2952 74.0254 52.0103 74.0269 51.746 73.9824C50.9648 73.8519 50.3892 73.4055 49.9854 72.7219C48.7931 70.7065 47.5994 68.6926 46.4041 66.6802C45.7155 65.519 45.0195 64.3622 44.3367 63.1981C43.9226 62.4937 44.0738 61.5831 44.7596 61.2153C45.5833 60.7719 46.4849 60.5732 47.4085 60.9573C47.8578 61.1441 48.2073 61.4659 48.4393 61.8975C49.8424 64.5171 52.6872 69.7959 52.6872 69.7959C52.7092 69.7915 52.7327 69.787 52.7548 69.7826L52.7533 69.7841Z" fill="#191919"/>
<path d="M8.94049 49.2342C10.1005 50.7127 11.2443 52.172 12.4337 53.6891C11.8023 54.1355 11.2018 54.6041 10.5571 54.9986C10.1445 55.2522 9.66732 55.1276 9.31492 54.7509C9.0374 54.4543 8.79365 54.1251 8.54109 53.8048C8.00367 53.1256 7.47213 52.4419 6.93618 51.7627C6.63957 51.386 6.36058 51.3564 5.98322 51.6589C5.34742 52.1676 4.71309 52.6762 4.07729 53.1849C3.17719 53.9071 2.10676 53.7826 1.38873 52.875C1.01137 52.3974 0.635468 51.9214 0.261037 51.4439C0.221392 51.3934 0.186151 51.3371 0.137695 51.2674C0.399063 51.0583 0.650151 50.8566 0.90124 50.6549C3.78068 48.3518 6.66013 46.0487 9.53957 43.7456C10.0638 43.3259 10.6394 43.105 11.3163 43.2622C11.817 43.3793 12.1841 43.6937 12.4954 44.0882C13.1855 44.9647 13.8742 45.8426 14.5628 46.719C15.5554 47.9826 16.5466 49.2461 17.5597 50.5363C17.3909 50.6727 17.2293 50.8106 17.059 50.9382C16.6215 51.2659 16.2 51.6233 15.736 51.908C15.0518 52.3262 14.5452 52.2076 14.0445 51.5744C13.1576 50.4503 12.2766 49.3217 11.3926 48.1946C11.0652 47.7764 10.8009 47.7453 10.3853 48.0775C9.91254 48.4556 9.43972 48.8353 8.93902 49.2342H8.94049Z" fill="#191919"/>
<path d="M39.8273 31.6874C39.7201 31.6147 39.6482 31.5643 39.5747 31.5168C38.6086 30.9044 37.638 30.2963 36.6747 29.6809C36.2518 29.411 36.0477 28.932 36.1403 28.4767C36.2401 27.9799 36.591 27.6314 37.0888 27.5395C37.3795 27.4861 37.6497 27.5528 37.8949 27.7085C39.5924 28.7792 41.2883 29.8514 42.9843 30.9236C43.3925 31.1817 43.598 31.5569 43.5525 32.0403C43.5055 32.5327 43.2295 32.8634 42.7684 33.0429C40.9711 33.7399 39.1753 34.4398 37.3781 35.1368C36.7114 35.3949 36.0507 35.1235 35.8157 34.5036C35.5749 33.8674 35.8701 33.2356 36.5396 32.9717C37.5176 32.5876 38.4984 32.2079 39.4778 31.8268C39.5835 31.7853 39.6863 31.7423 39.8288 31.6859L39.8273 31.6874Z" fill="#191919"/>
<path d="M51.2996 29.0773C52.6152 29.104 53.8589 29.5949 54.9441 30.5129C55.0836 30.6315 55.2275 30.7442 55.3581 30.8718C55.9058 31.3997 55.9396 32.2658 55.4404 32.8412C54.9426 33.4136 54.0954 33.4759 53.4992 32.9821C53.2819 32.8026 53.069 32.6143 52.8399 32.4511C51.63 31.5866 50.1822 31.7556 49.1999 32.8768C48.9532 33.1585 48.661 33.3424 48.2909 33.3854C47.7051 33.4537 47.1838 33.1867 46.9136 32.6899C46.6361 32.1798 46.6934 31.5584 47.0619 31.0927C48.0208 29.8752 49.6565 29.0773 51.2996 29.0773Z" fill="#191919"/>
</g>
<defs>
<clipPath id="clip0_3702_1583">
<rect width="88" height="74" fill="white" transform="translate(0.137695 0.5)"/>
</clipPath>
</defs>
</svg>
