<svg width="162" height="53" viewBox="0 0 162 53" fill="none" xmlns="http://www.w3.org/2000/svg">
<g clip-path="url(#clip0_3702_1575)">
<path d="M12.4961 33.6015C11.3777 33.6957 10.2594 33.6957 9.16005 33.5073C6.90446 33.1306 4.78155 32.0192 3.18937 30.3992C0.971686 28.1388 -0.279316 24.767 0.251412 21.6401C0.744231 18.7016 2.52596 15.8572 5.00901 14.1619C7.37833 12.5419 10.2784 11.6378 13.1405 11.6378C20.9119 11.6378 27.2237 17.9104 27.2237 25.6335C27.2237 33.3566 20.9308 39.6293 13.1405 39.6293C10.9986 39.6293 8.57246 39.4032 6.8476 37.9528C6.10837 37.3312 4.87632 36.088 6.4306 35.4663C6.82864 35.3156 7.2646 35.3156 7.70055 35.3533C7.90905 35.3722 8.11755 35.4098 8.32605 35.4287C12.0032 35.8808 15.9268 34.5245 18.5236 31.8497C19.7936 30.5499 20.7223 28.9676 21.3099 27.2535C21.9544 25.3698 22.542 23.1471 22.1439 21.1692C22.106 20.9808 22.0492 20.7925 21.9733 20.6041C21.4047 19.1536 19.8694 18.4755 18.5615 18.7204C17.2537 18.9653 16.1543 19.9448 15.2445 21.0562C14.7327 21.6778 14.1262 22.6008 13.0078 22.4313C12.1359 22.2994 11.681 21.5648 11.264 21.0562C10.3542 19.9448 9.25483 18.9653 7.94696 18.7204C6.6391 18.4755 5.12273 19.1536 4.53514 20.6041C4.45932 20.7925 4.40246 20.9808 4.36455 21.1692C3.35996 25.9914 8.7241 29.4951 12.7425 30.5499C13.349 30.7006 14.0314 30.8513 14.4105 31.3599C15.4151 32.7162 13.5196 33.5073 12.4961 33.6015Z" fill="#191919"/>
<path d="M111.628 32.735C112.671 31.1527 113.562 28.2518 113.884 24.4279C114.036 22.6008 114.093 21.0561 114.093 19.9824C114.093 19.6245 114.074 18.7581 114.036 18.2871C114.017 18.1176 113.998 17.7974 113.922 17.722C113.619 17.4018 112.083 17.8162 111.439 18.0234C111.136 18.1176 110.794 18.2871 110.794 18.5508C110.776 18.8522 110.794 19.0594 110.794 19.568C110.813 20.5664 110.738 22.4689 110.681 24.1077C110.624 26.2739 109.96 29.7211 109.051 30.9078C108.52 31.6236 107.8 32.1322 106.966 32.0945C106.189 32.0569 105.847 31.8873 105.468 31.5294C104.805 30.9078 104.255 29.9471 104.009 28.0069C103.857 26.8579 103.876 26.1798 103.952 24.6163C104.028 23.2035 104.198 22.0168 104.312 21.1127C104.426 20.3592 104.691 19.1913 104.786 18.5697C104.786 18.5697 104.919 17.9669 104.388 17.9857C103.668 18.0046 101.715 18.306 101.583 18.7769C101.147 20.3403 100.881 22.9398 100.843 23.8063C100.749 26.9144 100.843 27.7432 101.033 29.3443C101.317 31.6801 102.208 32.9987 103.156 33.9029C104.028 34.7505 105.392 35.3721 106.662 35.4098C108.691 35.504 110.415 34.581 111.628 32.735Z" fill="#191919"/>
<path d="M51.9974 23.0905C51.9974 23.0905 51.713 29.382 51.6941 29.7022C51.5614 32.2829 51.5045 34.2419 52.4712 35.1272C52.6418 35.2779 52.9261 35.4475 53.1725 35.4475C53.817 35.4663 54.253 34.9766 54.5373 34.3173C56.5654 29.6646 57.57 27.5172 59.3138 24.8047C60.0531 23.6745 61.2093 22.224 61.2093 22.224C61.2093 22.7891 61.1524 23.4296 61.1145 23.9758C61.0956 24.2772 61.0008 25.577 60.925 26.9897C60.8871 27.5172 60.7165 30.1543 60.7165 30.7383C60.7354 32.3582 61.1524 33.6768 61.8348 34.4303C62.176 34.807 62.8015 35.2591 63.3322 35.3345C64.678 35.5605 66.3081 34.9766 67.6538 33.4131C68.6205 32.2829 69.7388 30.6441 69.7388 30.6441C69.8715 31.1715 70.3833 32.4147 71.1604 33.4319C71.5206 33.9029 72.1081 34.3738 72.6199 34.6563C73.8141 35.3156 74.9703 35.6735 76.5056 35.391C79.5762 34.8447 81.9645 32.7726 81.9645 32.7726C82.0593 32.9045 82.0593 32.9799 82.4005 33.3566C83.7462 34.9766 85.1678 35.4286 86.6273 35.4098C87.8215 35.391 88.9777 35.2779 90.2856 34.581C91.1764 34.1854 92.4843 33.2059 93.1288 32.3582C93.3752 32.0192 92.9013 30.3427 92.3706 29.8718C92.0863 29.6269 91.783 29.6269 91.5366 29.8718C89.8307 31.3976 89.1862 31.8308 88.0489 32.038C86.5705 32.3017 85.7175 31.7366 84.9972 30.7571C84.9972 30.7383 86.6463 29.7399 87.9542 28.7792C88.5986 28.2895 89.5084 27.649 90.3993 26.6507C90.9869 26.0102 92.3706 24.0889 92.181 21.5647C92.1052 20.491 91.4228 19.1159 90.4562 18.532C88.9398 17.609 86.4188 18.0046 85.0162 18.7015C82.2678 20.0578 80.5998 22.7891 80.2776 26.3116C80.1259 27.8939 80.6377 29.7776 80.6377 29.7776C80.6377 29.7776 78.42 31.5671 76.3919 31.812C74.2121 32.0757 73.4918 30.8136 73.0938 30.0978C72.4683 28.9488 72.2029 27.31 72.5631 25.803C72.8663 24.5033 73.5487 22.0545 76.3729 21.0373C77.4723 20.6417 77.6239 20.8489 77.8703 20.5852C77.9841 20.4534 77.9651 19.8317 77.6429 19.1536C77.3586 18.5508 76.8278 18.0234 76.3919 18.0234C75.2925 17.9857 74.5912 18.2871 73.8899 18.6074C72.7336 19.1159 71.6343 20.039 70.8571 21.3199C70.0042 22.7326 69.6061 23.5803 69.0186 25.464C68.0898 28.459 65.4551 31.6613 64.6211 31.812C64.0146 31.925 63.9198 30.9831 63.9387 30.5687C63.9956 29.2502 64.1283 27.4418 64.1851 26.2551C64.2989 24.5033 64.4316 20.9431 64.4126 20.3592C64.3936 19.4927 62.4224 17.8916 61.323 18.0611C60.9629 18.1176 60.0531 18.9087 59.7877 19.1536C59.2191 19.6999 58.5746 20.4157 58.2524 20.8113C56.2432 23.3542 55.049 25.8407 54.9732 25.9726C54.9732 25.9726 55.2196 21.9226 55.2765 19.8317C55.2765 19.8317 55.2765 19.3797 55.2955 19.2478C55.3334 18.1929 54.67 18.4378 53.8739 18.5885C53.4758 18.7204 52.8124 18.9087 52.585 19.0218C52.3385 19.1725 52.1869 19.3608 52.149 19.7376C52.13 20.1331 52.0163 22.5631 51.9974 23.0905ZM160.626 33.1682C160.645 32.5654 160.759 29.2125 160.815 28.2895C160.834 27.762 160.891 26.6507 160.929 26.2363C161.005 24.4844 161.176 20.9243 161.157 20.3403C161.138 19.4738 159.015 17.835 157.915 18.0234C157.555 18.0799 156.645 18.8522 156.38 19.1159C155.963 19.5304 155.053 20.5099 154.75 20.9054C152.703 23.4484 151.66 25.8219 151.585 25.9537C151.585 25.9537 151.793 22.111 151.888 19.8694C151.888 19.8694 151.888 19.4173 151.907 19.2855C151.945 18.2306 150.334 18.2306 149.651 18.7015C149.519 18.758 149.386 18.8711 149.234 19.0218C148.476 19.7941 147.832 20.2085 146.865 20.6982C146.031 21.1315 144.875 20.9431 144.23 20.6794C143.586 20.4157 143.131 19.9259 142.619 19.455L142.6 19.4362C141.615 18.4943 140.42 17.7032 138.013 18.0422C136.838 18.2118 135.966 18.6639 134.924 19.4173C131.758 21.7531 131.057 27.9504 132.706 31.8685C133.256 33.1494 134.696 35.0707 136.8 35.3721C138.563 35.617 140.534 34.9766 141.956 33.4131C143.074 32.1699 143.662 31.0397 144.192 28.8169C144.647 26.8767 144.59 24.7105 144.42 23.7686C145.14 23.9758 146.429 24.0512 147.073 23.844C147.68 23.6745 148.021 23.4107 148.59 23.0905C148.59 23.0905 148.305 29.382 148.287 29.7022C148.154 32.2829 148.097 34.2419 149.064 35.1272C149.234 35.2779 149.519 35.4475 149.765 35.4475C150.409 35.4663 150.845 34.9766 151.13 34.3173C153.158 29.6646 154.125 27.4795 155.887 24.767C156.627 23.6368 157.783 22.1863 157.783 22.1863C157.783 22.7515 157.726 23.3919 157.688 23.9382C157.669 24.2396 157.612 25.5581 157.517 26.9897C157.479 27.5172 157.347 30.1543 157.309 30.7383C157.214 32.5843 157.214 32.7915 157.214 34.4868C157.214 34.5998 157.195 35.0142 157.442 35.2026C158.143 35.73 159.602 34.9389 160 34.694C160.417 34.4491 160.588 34.468 160.626 33.1682ZM141.065 28.3083C140.477 30.2862 139.605 31.5671 138.544 31.9627C137.653 32.2829 136.516 31.9438 135.776 30.9078C134.829 29.6081 134.867 26.7072 135.132 25.1061C135.265 24.2207 135.833 22.6196 136.857 21.998C138.127 21.2445 140.231 21.2633 141.046 23.5803C141.633 25.2002 141.33 27.3853 141.065 28.3083ZM84.3907 23.1659C84.9404 22.0357 86.4188 20.6606 87.7077 20.6794C88.03 20.6794 88.3712 20.7736 88.6365 20.9808C89.2052 21.4329 89.8307 23.1094 87.3476 25.3886C86.6084 26.0667 84.3338 27.4983 83.7273 27.8751C83.3292 26.1798 83.8979 24.1831 84.3907 23.1659Z" fill="#191919"/>
<path d="M119.419 35.165C119.741 35.1273 121.049 34.7129 121.655 34.5245C123.987 33.8087 126.64 32.4148 128.365 29.269C128.384 29.2314 130.469 25.8219 129.465 21.7531C128.934 19.5681 126.868 18.5885 125.636 18.4379C123.096 18.1365 121.864 19.0218 120.954 19.8506C120.518 20.2462 120.366 20.6418 120.063 21.1504C120.12 20.378 120.12 19.5681 120.196 18.4002C120.196 18.2683 120.044 18.0611 119.779 18.0423C119.191 18.0046 118.016 18.2306 117.466 18.4755C117.163 18.6262 117.087 19.003 117.087 19.2102C117.03 19.9071 116.898 23.6933 116.784 25.69C116.727 26.5565 116.519 32.5466 116.462 33.4131C116.329 35.7866 116.14 39.7235 116.083 41.0044C116.083 41.2304 116.064 41.5506 116.064 41.5506C116.064 41.9085 116.31 42.2476 116.86 42.2476C117.675 42.2476 118.414 41.8709 118.755 41.7202C119.21 41.4941 119.153 41.0232 119.191 40.1379C119.229 39.5163 119.229 39.3091 119.305 37.7833C119.343 36.9356 119.343 36.2952 119.419 35.165ZM120.044 26.3305C121.257 22.695 122.849 21.8096 123.987 21.4894C124.726 21.2822 125.465 21.5648 125.693 21.7531C126.261 22.2241 126.546 22.921 126.621 23.9194C126.716 25.6147 125.92 27.9693 124.555 29.2314C121.769 31.7932 119.57 31.5671 119.57 31.5671C119.608 30.4557 119.551 27.7998 120.044 26.3305Z" fill="#191919"/>
<path d="M48.7941 23.5426C48.6993 22.9022 48.6424 22.3182 48.2254 21.2822C47.8653 20.3592 47.0882 19.3797 46.7849 19.0783C45.8182 18.1364 44.5293 17.2888 42.1221 17.6278C41.1364 17.7597 40.2266 18.1929 39.222 18.9841C36.1324 21.414 35.4122 28.1953 37.1939 32.0568C37.7815 33.3189 39.2789 35.1838 41.4018 35.4286C43.1835 35.6358 45.1169 34.92 46.4816 33.3001C47.562 32.0192 48.2065 30.8701 48.6614 28.6285C49.0594 26.6695 48.9647 24.654 48.7941 23.5426ZM45.5339 28.2141C45.0221 30.2108 44.0933 31.5294 43.0508 31.9438C42.1789 32.3017 41.0227 31.9815 40.2645 30.9831C39.2789 29.7211 39.2599 26.2928 39.7338 24.654C39.9423 23.957 40.492 22.2429 41.4966 21.4706C42.6718 20.5664 44.5862 20.6794 45.477 22.9587C46.0836 24.5598 45.7803 27.2911 45.5339 28.2141Z" fill="#191919"/>
</g>
<defs>
<clipPath id="clip0_3702_1575">
<rect width="161" height="52" fill="white" transform="translate(0.137695 0.5)"/>
</clipPath>
</defs>
</svg>
