<svg width="256" height="65" viewBox="0 0 256 65" fill="none" xmlns="http://www.w3.org/2000/svg">
<g clip-path="url(#clip0_1426_20150)">
<path d="M32.0004 2.74023C15.4252 2.74023 2 16.1652 2 32.7402C2 40.4652 5.02854 47.6435 10.1714 53.3232C11.2379 54.5052 12.9599 54.5495 14.0857 53.4237L29.1121 38.3975C29.9904 37.5192 31.4859 38.1365 31.4859 39.3785L31.4746 60.0402C31.4746 61.556 32.5089 62.5902 34.0247 62.5902C45.6498 62.5902 62 51.7152 62 32.7402C62.0008 16.1652 48.5756 2.74023 32.0004 2.74023ZM8.60008 32.7402C8.60008 19.8402 19.1002 9.34023 32.0004 9.34023C44.9005 9.34023 55.4007 19.8402 55.4007 32.7402C55.4007 37.2402 54.0739 41.714 51.6289 45.491C51.5711 45.578 51.4481 45.5892 51.3724 45.518L33.8746 28.0145C32.8239 26.9637 31.1739 26.9637 30.1246 28.0145L12.6254 45.5105C12.5519 45.584 12.4266 45.5697 12.3689 45.4835C9.92385 41.7057 8.59858 37.2402 8.59858 32.7402H8.60008Z" fill="#191919"/>
</g>
<path d="M153.621 7.07012C154.935 8.3353 155.799 10.0084 156 11.8267C156 12.5871 155.799 13.0918 155.343 14.0528C154.887 15.0138 149.265 24.7343 147.592 27.4168C146.631 28.9862 146.126 30.8597 146.126 32.6849C146.126 34.5101 146.631 36.3837 147.592 37.9531C149.265 40.6355 154.887 50.4113 155.343 51.3723C155.799 52.3333 156 52.7896 156 53.5501C155.799 55.3753 154.99 57.0415 153.67 58.2583C152.404 59.5718 150.731 60.436 148.961 60.5881C148.201 60.5881 147.696 60.3876 146.783 59.9313C145.87 59.4751 135.948 54.0064 133.265 52.3333C133.065 52.2296 132.857 52.0775 132.608 51.9807L119.34 44.1338C119.644 46.6642 120.757 49.0978 122.583 50.8676C122.935 51.2202 123.295 51.5244 123.696 51.8286C123.392 51.9807 123.039 52.1328 122.735 52.3333C120.052 54.0064 110.275 59.6272 109.314 60.0834C108.353 60.5397 107.896 60.7402 107.087 60.7402C105.262 60.5397 103.596 59.7309 102.379 58.4104C101.065 57.1452 100.201 55.4721 100 53.6538C100.048 52.8933 100.256 52.1328 100.657 51.476C101.113 50.515 106.735 40.7392 108.408 38.0568C109.369 36.4874 109.874 34.6622 109.874 32.7886C109.874 30.915 109.369 29.0899 108.408 27.5205C106.735 24.7343 101.065 14.9654 100.657 14.0044C100.249 13.3476 100.048 12.5871 100 11.8267C100.201 10.0015 101.01 8.3353 102.33 7.07012C103.596 5.75654 105.269 4.94073 107.087 4.74023C107.848 4.78863 108.608 4.99603 109.314 5.39702C110.123 5.74962 117.265 9.90468 121.061 12.1309L121.926 12.6355C122.23 12.836 122.486 12.9881 122.686 13.0918L123.094 13.3476L136.612 21.3467C136.308 18.3116 134.738 15.5254 132.304 13.6518C132.608 13.4997 132.961 13.3476 133.265 13.1471C135.948 11.4741 145.725 5.80493 146.686 5.39702C147.343 4.98912 148.104 4.78863 148.913 4.74023C150.683 4.94073 152.356 5.74962 153.621 7.07012ZM128.709 36.3353L131.592 33.4523C132 33.0444 132 32.443 131.592 32.035L128.709 29.1521C128.301 28.7442 127.699 28.7442 127.291 29.1521L124.408 32.035C124 32.443 124 33.0444 124.408 33.4523L127.291 36.3353C127.644 36.6879 128.301 36.6879 128.709 36.3353ZM153.621 7.07012C154.935 8.3353 155.799 10.0084 156 11.8267C156 12.5871 155.799 13.0918 155.343 14.0528C154.887 15.0138 149.265 24.7343 147.592 27.4168C146.631 28.9862 146.126 30.8597 146.126 32.6849C146.126 34.5101 146.631 36.3837 147.592 37.9531C149.265 40.6355 154.887 50.4113 155.343 51.3723C155.799 52.3333 156 52.7896 156 53.5501C155.799 55.3753 154.99 57.0415 153.67 58.2583C152.404 59.5718 150.731 60.436 148.961 60.5881C148.201 60.5881 147.696 60.3876 146.783 59.9313C145.87 59.4751 135.948 54.0064 133.265 52.3333C133.065 52.2296 132.857 52.0775 132.608 51.9807L119.34 44.1338C119.644 46.6642 120.757 49.0978 122.583 50.8676C122.935 51.2202 123.295 51.5244 123.696 51.8286C123.392 51.9807 123.039 52.1328 122.735 52.3333C120.052 54.0064 110.275 59.6272 109.314 60.0834C108.353 60.5397 107.896 60.7402 107.087 60.7402C105.262 60.5397 103.596 59.7309 102.379 58.4104C101.065 57.1452 100.201 55.4721 100 53.6538C100.048 52.8933 100.256 52.1328 100.657 51.476C101.113 50.515 106.735 40.7392 108.408 38.0568C109.369 36.4874 109.874 34.6622 109.874 32.7886C109.874 30.915 109.369 29.0899 108.408 27.5205C106.735 24.7343 101.065 14.9654 100.657 14.0044C100.249 13.3476 100.048 12.5871 100 11.8267C100.201 10.0015 101.01 8.3353 102.33 7.07012C103.596 5.75654 105.269 4.94073 107.087 4.74023C107.848 4.78863 108.608 4.99603 109.314 5.39702C110.123 5.74962 117.265 9.90468 121.061 12.1309L121.926 12.6355C122.23 12.836 122.486 12.9881 122.686 13.0918L123.094 13.3476L136.612 21.3467C136.308 18.3116 134.738 15.5254 132.304 13.6518C132.608 13.4997 132.961 13.3476 133.265 13.1471C135.948 11.4741 145.725 5.80493 146.686 5.39702C147.343 4.98912 148.104 4.78863 148.913 4.74023C150.683 4.94073 152.356 5.74962 153.621 7.07012ZM128.709 36.3353L131.592 33.4523C132 33.0444 132 32.443 131.592 32.035L128.709 29.1521C128.301 28.7442 127.699 28.7442 127.291 29.1521L124.408 32.035C124 32.443 124 33.0444 124.408 33.4523L127.291 36.3353C127.644 36.6879 128.301 36.6879 128.709 36.3353Z" fill="#FF694A"/>
<g clip-path="url(#clip1_1426_20150)">
<path d="M250.046 17.4582L224.006 2.07324V12.719L250.046 28.0362V17.456V17.4582Z" fill="#FF6492"/>
<path d="M250.046 28.0359L242.234 32.6768L224 21.9239L213.582 28.0447L205.768 23.7448L224.004 12.7188L250.046 28.0359Z" fill="#141446"/>
<path d="M213.582 28.0449L205.768 23.7451V32.677L213.582 28.0449Z" fill="#A14474"/>
<path d="M197.954 47.8956L224 32.6768L250.046 47.8956L224 63.2805L197.954 47.8956Z" fill="#141446"/>
<path d="M250.046 37.3329L224 21.7578V32.6768L250.046 47.8956V37.3329Z" fill="#FF6492"/>
<path d="M205.768 32.677V23.7451L224.004 12.719V2.07324L197.954 17.4582V47.8958L224 32.677V21.758L205.768 32.677Z" fill="#7A77FF"/>
</g>
<defs>
<clipPath id="clip0_1426_20150">
<rect width="60" height="60" fill="white" transform="translate(2 2.74023)"/>
</clipPath>
<clipPath id="clip1_1426_20150">
<rect width="52.0913" height="61.3333" fill="white" transform="translate(197.954 2.07324)"/>
</clipPath>
</defs>
</svg>
