<svg width="140" height="27" viewBox="0 0 140 27" fill="none" xmlns="http://www.w3.org/2000/svg">
<g clip-path="url(#clip0_3702_1562)">
<path d="M34.8599 22.809C33.3031 21.5877 32.5525 19.8643 32.4969 17.6117H36.3611C36.3611 19.0365 36.8198 20.0407 37.6955 20.6785C38.5434 21.262 39.8083 21.5877 41.4902 21.5877C42.8246 21.5877 43.8949 21.3434 44.6316 20.8278C45.3544 20.3664 45.7297 19.6065 45.7297 18.6973C45.7297 17.9102 45.41 17.2996 44.7984 16.906C44.2007 16.5125 43.0887 16.1461 41.4624 15.834L39.711 15.5219C35.263 14.7349 33.039 12.6994 33.039 9.49686C33.039 7.78704 33.7479 6.40291 35.0684 5.38517C36.4028 4.35385 38.3349 3.86533 40.6979 3.86533C43.4362 3.86533 45.4934 4.43527 46.9251 5.53443C48.3568 6.6336 49.0796 8.23485 49.163 10.2703H45.3405C45.271 9.1169 44.8818 8.28913 44.159 7.77347C43.4501 7.25782 42.3242 6.94571 40.7952 6.94571C39.6137 6.94571 38.6824 7.18997 38.0291 7.5835C37.3758 7.97702 37.0978 8.61481 37.0978 9.41544C37.0978 10.2296 37.3758 10.8403 38.0013 11.2474C38.599 11.6952 39.6276 12.0344 41.1427 12.3194L42.9219 12.6315C45.3544 13.0929 47.1197 13.785 48.1622 14.7349C49.2603 15.644 49.7885 16.9603 49.7885 18.5616C49.7885 20.5021 49.0657 22.0219 47.6062 23.0939C46.1467 24.166 44.0617 24.6816 41.4346 24.6816C38.5712 24.6545 36.4167 24.0574 34.8599 22.809ZM60.3108 11.5459H57.1416V19.9457C57.1416 20.4614 57.2945 20.7735 57.5447 21.0177C57.8227 21.2077 58.3231 21.3298 58.9764 21.3298H60.3108V24.2202C59.4629 24.2881 58.754 24.3424 58.2258 24.3424C56.4744 24.3424 55.2095 24.0303 54.4033 23.3925C53.5971 22.7547 53.1801 21.7777 53.1801 20.3799V11.6002H50.692V8.7098H53.1801V5.20876H57.0999V8.7098H60.2691L60.3108 11.5459ZM72.237 8.50625V12.0073H71.2084C69.7072 12.0073 68.5674 12.3737 67.7473 13.1065C66.9411 13.8664 66.5241 14.9384 66.5241 16.3632V24.261H62.5765V8.69623H66.399V11.4645C67.3025 9.42901 68.8871 8.45197 71.1945 8.45197C71.5837 8.45197 71.9034 8.45197 72.237 8.50625ZM83.9547 24.2067C83.7601 23.8946 83.635 23.2568 83.496 22.2933C82.3979 23.8131 80.6882 24.5459 78.3252 24.5459C76.546 24.5459 75.156 24.1524 74.1135 23.3246C73.0571 22.4969 72.5289 21.3434 72.5289 19.9186C72.5289 17.096 74.6139 15.4812 78.7005 15.0605L81.133 14.8706C81.9392 14.8027 82.5091 14.5992 82.8844 14.3006C83.2597 14.0292 83.4126 13.6085 83.4126 13.0793C83.4126 12.3873 83.1624 11.9259 82.7037 11.6138C82.245 11.3017 81.4805 11.1524 80.4241 11.1524C79.2982 11.1524 78.4642 11.3424 77.936 11.7223C77.4634 12.1159 77.1576 12.7265 77.0881 13.6357H73.2239C73.4741 10.1075 75.8649 8.31627 80.4519 8.31627C85.0528 8.31627 87.1517 9.86324 87.1517 12.9708V21.2756C87.1517 22.6733 87.4019 23.6232 87.805 24.2202L83.9547 24.2067ZM82.2728 20.882C83.0512 20.2442 83.4543 19.2943 83.4543 18.0595V16.6346C83.079 16.9468 82.4813 17.1503 81.6195 17.2724L79.5067 17.5167C78.4503 17.6388 77.7275 17.8831 77.2688 18.2223C76.8101 18.5616 76.5599 19.1044 76.5599 19.7422C76.5599 20.3799 76.8101 20.9363 77.2688 21.2891C77.7414 21.6827 78.3947 21.8591 79.2982 21.8591C80.4936 21.8319 81.4944 21.5198 82.2728 20.882ZM100.329 8.64195H104.443L98.4246 24.2067H93.9071L87.9301 8.64195H92.1418L93.6986 12.8622C94.4214 15.047 95.2554 17.7202 96.2145 20.8006C96.9929 18.3037 97.8408 15.6847 98.7304 12.8622L100.329 8.64195ZM106 24.2067V8.64195H109.948V24.2067H106ZM121.485 11.5459H118.316V19.9457C118.316 20.4614 118.468 20.7735 118.719 21.0177C118.997 21.2077 119.497 21.3298 120.15 21.3298H121.485V24.2202C120.637 24.2881 119.928 24.3424 119.4 24.3424C117.648 24.3424 116.383 24.0303 115.577 23.3925C114.771 22.7547 114.354 21.7777 114.354 20.3799V11.6002H111.866V8.7098H114.354V5.20876H118.274V8.7098H121.443L121.485 11.5459ZM130.951 24.5731C128.518 24.5731 126.503 23.8131 125.001 22.3476C123.5 20.882 122.722 18.9415 122.722 16.4447C122.722 13.9885 123.5 12.0073 125.001 10.5417C126.503 9.07619 128.49 8.31627 130.951 8.31627C133.383 8.31627 135.399 9.07619 136.9 10.5417C138.401 12.0073 139.138 14.0021 139.138 16.4989C139.138 18.9958 138.415 20.9092 136.9 22.4019C135.454 23.8131 133.439 24.5731 130.951 24.5731ZM134.036 20.1221C134.759 19.2401 135.135 18.0188 135.135 16.4175C135.135 14.8298 134.759 13.595 134.036 12.7129C133.314 11.8309 132.285 11.4102 130.951 11.4102C129.616 11.4102 128.588 11.858 127.865 12.7129C127.142 13.595 126.767 14.8163 126.767 16.4175C126.767 18.0052 127.142 19.2401 127.865 20.1221C128.588 21.0042 129.616 21.4248 130.951 21.4248C132.313 21.4384 133.314 21.0042 134.036 20.1221ZM110.295 4.62525C110.295 3.34967 109.239 2.31836 107.932 2.31836C106.626 2.31836 105.569 3.34967 105.569 4.62525C105.569 5.90082 106.626 6.93214 107.932 6.93214C109.239 6.93214 110.295 5.90082 110.295 4.62525Z" fill="#191919"/>
<path d="M22.9476 0.5V6.06367H7.741L1.0829 17.2046H0.137695V8.51983C0.137695 7.77349 0.346195 7.05428 0.721495 6.41649L2.5007 3.43111C3.5849 1.61274 5.5865 0.5 7.741 0.5H22.9476ZM15.3582 26.5C17.5127 26.5 19.5004 25.3873 20.5985 23.5689L22.3777 20.5835C22.7669 19.9457 22.9615 19.2129 22.9615 18.4802V9.79541H22.0163L15.3582 20.9363H0.151595V26.5H15.3582Z" fill="#191919"/>
</g>
<defs>
<clipPath id="clip0_3702_1562">
<rect width="139" height="26" fill="white" transform="translate(0.137695 0.5)"/>
</clipPath>
</defs>
</svg>
