<svg width="102" height="46" viewBox="0 0 102 46" fill="none" xmlns="http://www.w3.org/2000/svg">

<path d="M32.3589 13.6581L20.4485 42.079H11.9995L0.137695 13.6581H8.58678L16.4039 32.9937L24.4834 13.6581H32.3589ZM50.978 42.5C48.0028 42.5 45.3388 41.8734 42.9762 40.6202C40.6913 39.4357 38.7662 37.6343 37.4439 35.4119C36.1119 33.1895 35.4507 30.6734 35.4507 27.8538C35.4507 25.0343 36.1119 22.5182 37.4439 20.2958C38.7759 18.0734 40.6913 16.2721 42.9762 15.0874C45.3388 13.8343 48.0028 13.2077 50.978 13.2077C53.9531 13.2077 56.6075 13.8343 58.9506 15.0874C61.2257 16.2819 63.1314 18.0832 64.4635 20.2958C65.7955 22.5182 66.4566 25.0343 66.4566 27.8538C66.4566 30.6734 65.7955 33.1895 64.4635 35.4119C63.1411 37.6245 61.2355 39.4259 58.9604 40.6202C56.6172 41.8734 53.9531 42.5 50.978 42.5ZM50.978 35.7349C53.0781 35.7349 54.7991 35.0202 56.1505 33.5909C57.4923 32.1615 58.1728 30.2524 58.1728 27.8538C58.1728 25.4553 57.502 23.5462 56.1505 22.1168C54.7991 20.6874 53.0781 19.9727 50.978 19.9825C48.8779 19.9825 47.1472 20.6972 45.786 22.1266C44.4249 23.5559 43.7442 25.4651 43.7442 27.8636C43.7442 30.2622 44.4249 32.1713 45.786 33.6007C47.1472 35.03 48.8779 35.7349 50.978 35.7349ZM74.5362 13.6483H82.7228V42.079H74.5362V13.6483ZM78.6295 9.69301C77.1225 9.69301 75.8974 9.25245 74.9543 8.37133C74.0306 7.53916 73.5153 6.34476 73.5445 5.1014C73.5251 3.85804 74.0404 2.65385 74.964 1.82168C75.9071 0.94056 77.1322 0.5 78.6295 0.5C80.1365 0.5 81.3616 0.920979 82.3047 1.77273C83.2284 2.56574 83.7436 3.72098 83.7242 4.94476C83.7631 6.23706 83.2478 7.47063 82.3047 8.35175C81.3616 9.24266 80.1365 9.69301 78.6295 9.69301ZM96.0526 42.5C94.6913 42.5294 93.3888 41.9909 92.4359 41.0217C91.4637 40.0427 90.9288 38.7112 90.9674 37.321C90.9674 35.8035 91.454 34.5798 92.4359 33.6496C94.4972 31.7798 97.6176 31.7798 99.6789 33.6496C100.662 34.5798 101.147 35.8035 101.147 37.321C101.186 38.7014 100.651 40.0427 99.6789 41.0217C98.7163 41.9909 97.4042 42.5294 96.0526 42.5Z" fill="#F26961"/>

</svg>
